<?xml version="1.0" encoding="UTF-8"?>
<svg id="Camada_1" data-name="Camada 1" xmlns="http://www.w3.org/2000/svg" viewBox="0 0 396.85 85.04">
  <defs>
    <style>
      .cls-1, .cls-2 {
        fill: #231f1f;
      }

      .cls-2 {
        stroke: #231f1f;
        stroke-miterlimit: 10;
        stroke-width: .53px;
      }
    </style>
  </defs>
  <g>
    <g>
      <path class="cls-1" d="m18.49,33.77c-3.52-1.42-4.93-5.47-4.2-9.03.57-2.88,2.02-5.57,4.24-7.51,1.41-1.22,3.42-1.99,4.98-.51,3.21,3.2,4.21,15.4,4.94,20.1.3,2.04,1.11,7.48,1.42,9.58,0,0,.48,3.18.48,3.18l.61,3.14c.26,1.22.48,2.58.95,3.71,0,.01.01.03.01.02,0,.01,0-.02-.08-.08-.03-.02-.05-.04-.08-.05-.13-.07-.28-.09-.42-.08-.19.03-.27.09-.3.11-.05.04,0,.01.04-.06.65-1.19.95-2.55,1.33-3.9.27-1.03.51-2.07.75-3.12.7-3.15,2.14-9.47,2.85-12.61.94-4.23,1.95-8.53,3.7-12.54.88-2.03,1.91-3.98,3.35-5.66.17-.2.47-.22.67-.05.16.14.21.36.13.55-.83,1.97-1.82,3.84-2.63,5.8-1.63,3.94-2.5,8.12-3.4,12.3-.69,3.15-2.08,9.5-2.78,12.64-.5,2.15-.95,4.26-1.71,6.37-.18.47-.39.97-.69,1.4-.63.93-1.83.98-2.4-.07-.46-.87-.61-1.78-.84-2.68-.25-1.02-.77-3.72-.99-4.8-.56-3.58-1.43-9.24-1.97-12.82-.58-3.56-1.96-17.51-4.66-19.08-.05-.02-.1-.03-.15-.04-.03,0-.05,0-.08,0h-.1c-.59.09-1.07.43-1.58.83-2.5,2.18-4.2,5.88-3.68,9.15.35,1.97,1.59,3.42,2.93,4.9.41.43-.08,1.12-.61.9h0Z"/>
      <g>
        <path class="cls-1" d="m49.19,34.82c-.66,1.27-.5,3.13-.57,4.49-.09,2.99-.17,5.98-.03,8.97.03.93.1,1.88.16,2.8.03.75.21,1.15,1.07,1.68,0,0-4.77,0-4.77,0,.86-.53,1.04-.93,1.07-1.68.06-.93.13-1.88.16-2.8.14-2.99.06-5.98-.03-8.97-.08-1.36.09-3.22-.57-4.49,0,0,3.52,0,3.52,0h0Z"/>
        <circle class="cls-2" cx="47.43" cy="30.97" r="1.15"/>
      </g>
      <g>
        <circle class="cls-2" cx="116.86" cy="38.87" r="1.15"/>
        <path class="cls-1" d="m115.79,38.26c.4-3.08,3.72-4.26,6.47-4.27,1.76-.18,3.76.05,5.15,1.31,1.23.92,1.96,2.44,1.88,4,.02.64.06,2.39.07,3.05.01,1.89.15,5.25.11,7.11-.03.63-.09,1.6.01,2.19.13.51.99.75,1.53.86,0,0,.03.17.03.17-.32.18-.67.32-1.06.39-1.03.25-2.02-.37-2.22-1.47-.16-.7-.06-1.5-.05-2.19,0-.61,0-2.37,0-3.01.04-1.34.13-4.78.15-6.07,0-.54.06-1.4,0-1.93-.11-1.17-1.04-2.12-1.97-2.75-.98-.66-2.28-.77-3.6-.75-1.35.01-2.65.04-3.79.62-.57.28-1.09.65-1.48,1.15-.42.49-.61,1.11-1.08,1.66l-.14-.06h0Z"/>
        <path class="cls-1" d="m128.76,38.6c-1.32,1.34-2.76,2.56-4.47,3.37-1.37.55-2.82.97-4.2,1.47-1.54.51-2.77,1.67-3.29,3.19-1.04,2.31.41,5.01,2.8,5.81,2.02.68,4.14-.2,5.89-1.29,1.09-.68,2.16-1.38,2.61-2.65.04-.08.08-.16.13-.24.06-.07.03-.2.23-.17l.44.29c.1.19-.03.2-.07.29-.29.37-.68.67-1,1-1.54,1.95-3.6,3.45-6.12,3.89-5.29,1.01-9.46-4.11-6.12-8.79,1.15-1.79,3.27-2.54,5.28-2.72,1.09-.15,2.18-.28,3.22-.58,1.69-.58,3.22-1.73,4.25-3.19,0,0,.41.34.41.34h0Z"/>
      </g>
      <g>
        <circle class="cls-2" cx="55.17" cy="38.87" r="1.15"/>
        <path class="cls-1" d="m54.11,38.26c.4-3.08,3.72-4.26,6.47-4.27,1.76-.18,3.76.05,5.15,1.31,1.23.92,1.96,2.44,1.88,4,.02.64.06,2.39.07,3.05.01,1.89.15,5.25.11,7.11-.03.63-.09,1.6.01,2.19.13.51.99.75,1.53.86,0,0,.03.17.03.17-.32.18-.67.32-1.06.39-1.03.25-2.02-.37-2.22-1.47-.16-.7-.06-1.5-.05-2.19,0-.61,0-2.37,0-3.01.04-1.34.13-4.78.15-6.07,0-.54.06-1.4,0-1.93-.11-1.17-1.04-2.12-1.97-2.75-.98-.66-2.28-.77-3.6-.75-1.35.01-2.65.04-3.79.62-.57.28-1.09.65-1.48,1.15-.42.49-.61,1.11-1.08,1.66l-.14-.06h0Z"/>
        <path class="cls-1" d="m67.08,38.6c-1.32,1.34-2.76,2.56-4.47,3.37-1.37.55-2.82.97-4.2,1.47-1.54.51-2.77,1.67-3.29,3.19-1.04,2.31.41,5.01,2.8,5.81,2.02.68,4.14-.2,5.89-1.29,1.09-.68,2.16-1.38,2.61-2.65.04-.08.08-.16.13-.24.06-.07.03-.2.23-.17l.44.29c.1.19-.03.2-.07.29-.29.37-.68.67-1,1-1.54,1.95-3.6,3.45-6.12,3.89-5.29,1.01-9.46-4.11-6.12-8.79,1.15-1.79,3.27-2.54,5.28-2.72,1.09-.15,2.18-.28,3.22-.58,1.69-.58,3.22-1.73,4.25-3.19,0,0,.41.34.41.34h0Z"/>
      </g>
      <g>
        <path class="cls-1" d="m76.73,34.82c-.66,1.27-.5,3.13-.57,4.49-.09,2.99-.17,5.98-.03,8.97.03.93.1,1.88.16,2.8.03.75.21,1.15,1.07,1.68,0,0-4.77,0-4.77,0,.86-.53,1.04-.93,1.07-1.68.06-.93.13-1.88.16-2.8.14-2.99.06-5.98-.03-8.97-.08-1.36.09-3.22-.57-4.49,0,0,3.52,0,3.52,0h0Z"/>
        <path class="cls-1" d="m88.84,37.26c.15.31.3.63.32.97,0,0,.05.97.05.97v1.94s.03,3.88.03,3.88c-.04,2.1-.04,4.21.23,6.3.06.68.26.99,1.08,1.45,0,0-4.77,0-4.77,0,.62-.32.86-.65.99-.97.4-2.23.34-4.52.32-6.79,0-1.27.02-4.58.03-5.82.05-.65-.07-1.29.37-1.94h1.36Z"/>
        <path class="cls-1" d="m75.73,37.22c2.4-2.36,6.08-3.96,9.46-3.04,1.75.33,3.23,1.6,3.77,3.33,0,0-1.77.36-1.77.36.17-1.38-1.26-2.1-2.38-2.48-1.86-.74-3.95-.32-5.79.35-1.08.43-2.09,1.04-2.99,1.8l-.3-.32h0Z"/>
      </g>
      <path class="cls-1" d="m111.29,23.83c-.58,1.2-.57,2.39-.6,3.59l-.1,3.59c-.16,5.97-.3,11.97.17,17.93.18,1.2.5,2.39,1.27,3.59h-5c1.47-2.25,1.36-4.68,1.48-7.17.08-2.39.14-4.78.11-7.17-.02-2.39-.09-4.78-.15-7.17l-.1-3.59c-.03-1.2-.02-2.39-.6-3.59h3.52Z"/>
      <path class="cls-1" d="m108.66,36.89c-4.01-3.99-9.85-2.84-12.06,2.31-1.22,2.84-.98,6.15-.13,9.06,1.19,4.25,6.41,5.32,9.9,3.1.72-.43,1.4-.97,1.88-1.62l.3.23c-3.56,4.27-11.22,4.46-13.83-.94-1.63-3.34-2.12-7.63.11-10.82,1.6-2.25,4.13-3.88,6.88-4.16,2.65-.36,5.3.79,7.2,2.57,0,0-.27.28-.27.28h0Z"/>
    </g>
    <g>
      <path class="cls-1" d="m188.7,10.27c-1.33-1.36-2.33-3.18-4.16-3.85-3.36-1.22-6.58,1.34-9.18,3.25-3.79,2.8-6.25,6.78-8.35,10.97-1.72,3.24-3.07,6.58-3.79,10.16-1.13,6.17-.98,13.93,2.69,19.22,2.32,3.21,5.89,5.62,9.87,6.02,5,.55,10.15-1.8,13.06-5.91,1.84-2.51,2.99-5.47,3.59-8.52.09-.47.79-.38.77.09-.15,4.29-2.28,8.77-5.24,11.89-7.09,7.1-18.04,5.73-23.83-2.27-4.91-6.96-4.58-17.98-1.81-25.74.74-2.08,1.7-4.07,2.7-5.97,1.96-3.85,4.35-7.79,7.75-10.6,3.37-2.67,7.95-6.24,12.49-4.44,1.7.71,3.11,1.99,3.89,3.62.21.52.92,2.14-.04,2.24-.17.01-.32-.05-.43-.17h0Z"/>
      <g>
        <path class="cls-1" d="m345.58,34.82c-.66,1.27-.5,3.13-.57,4.49-.09,2.99-.17,5.98-.03,8.97.03.93.1,1.88.16,2.8.03.75.21,1.15,1.07,1.68,0,0-4.77,0-4.77,0,.86-.53,1.04-.93,1.07-1.68.06-.93.13-1.88.16-2.8.14-2.99.06-5.98-.03-8.97-.08-1.36.09-3.22-.57-4.49,0,0,3.52,0,3.52,0h0Z"/>
        <circle class="cls-2" cx="343.82" cy="30.97" r="1.15"/>
      </g>
      <g>
        <circle class="cls-2" cx="351.39" cy="38.87" r="1.15"/>
        <path class="cls-1" d="m350.32,38.26c.4-3.08,3.72-4.26,6.47-4.27,1.76-.18,3.76.05,5.15,1.31,1.23.92,1.96,2.44,1.88,4,.02.64.06,2.39.07,3.05.01,1.89.15,5.25.11,7.11-.03.63-.09,1.6.01,2.19.13.51.99.75,1.53.86,0,0,.03.17.03.17-.32.18-.67.32-1.06.39-1.03.25-2.02-.37-2.22-1.47-.16-.7-.06-1.5-.05-2.19,0-.61,0-2.37,0-3.01.04-1.34.13-4.78.15-6.07,0-.54.06-1.4,0-1.93-.11-1.17-1.04-2.12-1.97-2.75-.98-.66-2.28-.77-3.6-.75-1.35.01-2.65.04-3.79.62-.57.28-1.09.65-1.48,1.15-.42.49-.61,1.11-1.08,1.66l-.14-.06h0Z"/>
        <path class="cls-1" d="m363.29,38.6c-1.32,1.34-2.76,2.56-4.47,3.37-1.37.55-2.82.97-4.2,1.47-1.54.51-2.77,1.67-3.29,3.19-1.04,2.31.41,5.01,2.8,5.81,2.02.68,4.14-.2,5.89-1.29,1.09-.68,2.16-1.38,2.61-2.65.04-.08.08-.16.13-.24.06-.07.03-.2.23-.17l.44.29c.1.19-.03.2-.07.29-.29.37-.68.67-1,1-1.54,1.95-3.6,3.45-6.12,3.89-5.29,1.01-9.46-4.11-6.12-8.79,1.15-1.79,3.27-2.54,5.28-2.72,1.09-.15,2.18-.28,3.22-.58,1.69-.58,3.22-1.73,4.25-3.19,0,0,.41.34.41.34h0Z"/>
      </g>
      <g>
        <path class="cls-1" d="m223.92,35c-.66,1.27-.5,3.13-.57,4.49-.09,2.99-.17,5.98-.03,8.97.03.93.1,1.88.16,2.8.03.75.21,1.15,1.07,1.68,0,0-4.77,0-4.77,0,.86-.53,1.04-.93,1.07-1.68.06-.93.13-1.88.16-2.8.14-2.99.06-5.98-.03-8.97-.08-1.36.09-3.22-.57-4.49,0,0,3.52,0,3.52,0h0Z"/>
        <path class="cls-1" d="m236.04,37.44c.15.31.3.63.32.97,0,0,.05.97.05.97v1.94s.03,3.88.03,3.88c-.04,2.1-.04,4.21.23,6.3.06.68.26.99,1.08,1.45,0,0-4.77,0-4.77,0,.62-.32.86-.65.99-.97.4-2.23.34-4.52.32-6.79,0-1.27.02-4.58.03-5.82.05-.65-.07-1.29.37-1.94h1.36Z"/>
        <path class="cls-1" d="m222.92,37.4c2.4-2.36,6.08-3.96,9.46-3.04,1.75.33,3.23,1.6,3.77,3.33,0,0-1.77.36-1.77.36.17-1.38-1.26-2.1-2.38-2.48-1.86-.74-3.95-.32-5.79.35-1.08.43-2.09,1.04-2.99,1.8l-.3-.32h0Z"/>
      </g>
      <path class="cls-1" d="m207.3,33.87c4.65.05,8.62,3.04,8.95,7.87.23,1.85.24,3.79-.44,5.58-1.36,3.5-4.84,6.11-8.62,6.02-3.65-.02-7.51-2.4-8.54-6.09-.66-2.46-.65-4.98.01-7.41,1.15-3.65,5-5.98,8.65-5.96h0Zm0,.46c-3.4-.03-6.56,2.6-7.19,5.9-.36,2.06-.33,4.55.01,6.63.58,3.33,3.59,6.01,7.06,6.02,3.5.09,6.32-2.82,7.14-6.05.55-2.11.3-4.43,0-6.58-.5-3.37-3.64-5.92-7.03-5.93h0Z"/>
      <path class="cls-1" d="m311.91,33.8c4.65.05,8.62,3.04,8.95,7.87.23,1.85.24,3.79-.44,5.58-1.36,3.5-4.84,6.11-8.62,6.02-3.65-.02-7.51-2.4-8.54-6.09-.66-2.46-.65-4.98.01-7.41,1.15-3.65,5-5.98,8.65-5.96h0Zm0,.46c-3.4-.03-6.56,2.6-7.19,5.9-.36,2.06-.33,4.55.01,6.63.58,3.33,3.59,6.01,7.06,6.02,3.5.09,6.32-2.82,7.14-6.05.55-2.11.3-4.43,0-6.58-.5-3.37-3.64-5.92-7.03-5.93h0Z"/>
      <g>
        <circle class="cls-2" cx="253.43" cy="37.42" r="1.15"/>
        <path class="cls-1" d="m253.49,36.28c-1.68-1.05-3.55-1.81-5.48-1.74-1.66.07-4.12.3-4.65,2.14-.42.98-.84,2.33.02,3.18,2.55,2.44,6.41,2.03,9.35,3.84,3.86,2.08,3.13,6.39-.09,8.63-3.31,2.43-8.61.79-11.55-1.52-.11-.09.02-.26.13-.18,2.78,2.06,7.93,3.34,10.77.91.72-.58,1.05-1.51,1.35-2.3,1.18-2.98-1.68-4.26-4.1-4.98-1.98-.58-4.1-.87-5.84-2.08-.72-.47-1.5-1.08-1.9-1.93-.55-1.16-.36-2.49.09-3.6,1.2-2.46,4.32-2.92,6.44-2.84,1.04.03,2.07.28,3.02.68.95.39,1.82.94,2.64,1.52.17.12,0,.39-.18.28h0Z"/>
      </g>
      <g>
        <circle class="cls-2" cx="380.83" cy="37.42" r="1.15"/>
        <path class="cls-1" d="m380.89,36.28c-1.68-1.05-3.55-1.81-5.48-1.74-1.66.07-4.12.3-4.65,2.14-.42.98-.84,2.33.02,3.18,2.55,2.44,6.41,2.03,9.35,3.84,3.86,2.08,3.13,6.39-.09,8.63-3.31,2.43-8.61.79-11.55-1.52-.11-.09.02-.26.13-.18,2.78,2.06,7.93,3.34,10.77.91.72-.58,1.05-1.51,1.35-2.3,1.18-2.98-1.68-4.26-4.1-4.98-1.98-.58-4.1-.87-5.84-2.08-.72-.47-1.5-1.08-1.9-1.93-.55-1.16-.36-2.49.09-3.6,1.2-2.46,4.32-2.92,6.44-2.84,1.04.03,2.07.28,3.02.68.95.39,1.82.94,2.64,1.52.17.12,0,.39-.18.28h0Z"/>
      </g>
      <g>
        <path class="cls-1" d="m263.25,34.73c-.86,1.22-.86,2.51-.85,3.89-.04,1.29-.04,2.58-.04,3.88v3.88c.04,1.31-.08,2.59-.45,3.87,0,0-1.27-.03-1.27-.03-.33-1.28-.41-2.56-.33-3.86.04-2.57.09-5.14-.03-7.71-.02-1.37-.05-2.66-.95-3.84,0,0,3.92-.07,3.92-.07h0Z"/>
        <path class="cls-1" d="m276.2,34.84c-.9,1.59-1,3.32-1,5.07-.11,2.92-.05,6.04-.03,8.97-.02,1-.18,2.2-.11,3.13-.02.27.39.34.66.37.41.06.91-.01,1.34.18l-.02.07c-.68.1-1.19.66-1.94.74-1.67.18-2.34-2-2.13-3.3.02-.19.08-.74.08-.91,0-.19-.01-1.34-.01-1.56-.06-2.5-.11-5.25-.08-7.73.06-1.78.1-3.49-.69-5.19,0,0,3.92.16,3.92.16h0Z"/>
        <path class="cls-1" d="m262.12,48.5c.16,1.07.12,2.2.95,3.04.84.88,2.24,1.2,3.45,1.24,1.28.01,2.6.05,3.77-.46,1.17-.47,2.14-1.36,2.81-2.43l.44.3c-.79,1.08-1.86,1.98-3.11,2.47-1.9.63-3.97.65-5.88.19-1.36-.25-2.89-.81-3.64-2.16-.42-.67-.58-1.47-.49-2.23l1.72.03h0Z"/>
      </g>
      <path class="cls-1" d="m280.68,52.82c.74-1.2.78-2.39.79-3.58l.1-3.58c.19-5.92.13-11.97-.05-17.9-.03-1.28.03-2.46-.84-3.58,0,0,3.98-.02,3.98-.02-.86,1.13-.8,2.3-.82,3.58,0,0-.06,3.58-.06,3.58-.05,2.39-.04,4.77-.02,7.16.04,3.45.17,7.27.3,10.74.02,1.19.07,2.39.82,3.58l-4.21.02h0Z"/>
      <path class="cls-1" d="m293.2,29.01c-.09,1.16-.12,2.32-.11,3.48-.03.62.07,1.09.45,1.58.08.14.08.26-.05.38-.05.04-.2.05-.21.13.01.02-.02.03.02.05.14.05.21.05.43.08,1.04.15,2.6.31,3.62.51.08.02.06.03.06.05-.04.11-.15.14-.37.2-.4.09-1.08.17-1.76.25-.73.08-1.23.17-1.63.28-.39.1-.24.24-.3.36-.07.12,0,.25-.02.37.11,2.99.04,6.29.09,9.26.07,1.45-.11,3.04.04,4.43.04.19.05.28.14.43,1.2,1.68,3.85,2.02,5.76,1.22,0,0,.04.07.04.07-2.11,1.78-6.47,1.58-7.56-1.31-.65-2.66-.47-5.28-.42-7.96.08-2.23-.13-4.35-.05-6.61-.05-.14.12-.26-.26-.42-.68-.32-2.54-.7-3.24-1.02-.18-.08-.27-.16-.31-.23,0-.02,0-.04,0-.05,0-.02-.01-.04.07-.05.03,0,.13-.01.17-.01,1.01-.02,2.5.03,3.51.04.22,0,.3,0,.44-.02.05-.01.02-.03.03-.05,0-.02,0-.03-.02-.05-.5-.27-.02-.61.22-.87.11-.19.23-.37.28-.56.12-.55.27-1.17.4-1.71.17-.76.33-1.52.46-2.28h.08Z"/>
      <g>
        <circle class="cls-2" cx="337.42" cy="36.27" r="1.15"/>
        <path class="cls-1" d="m323.94,52.93c1.21-1.4,1.08-2.88,1.22-4.51.09-1.51.13-3.01.12-4.52-.15-3.04.17-6.06-.66-9.04,0,0,3.41.02,3.41.02-.86,2.98-.56,6-.74,9.03-.02,1.51,0,3.01.07,4.52.12,1.64-.02,3.12,1.18,4.52,0,0-4.6-.02-4.6-.02h0Z"/>
        <path class="cls-1" d="m337.39,35.06c-4.32-1.4-7.9.52-10.04,4.33,0,0-.49-.19-.49-.19,1.66-3.99,6.65-5.92,10.61-4.36,0,0-.07.22-.07.22h0Z"/>
      </g>
    </g>
  </g>
  <g>
    <path class="cls-1" d="m59.59,77.99c-.24.81-.68,2.04-.93,2.56-.49.1-1.82.41-3.11.41-4.06,0-6.13-2.7-6.13-5.67,0-3.46,2.63-5.86,6.43-5.86,1.46,0,2.65.31,3.21.39.07.76.19,1.78.32,2.63l-.53.12c-.34-1.14-.75-1.83-1.61-2.19-.44-.2-1.14-.32-1.78-.32-2.8,0-4.28,2.07-4.28,4.87,0,3.28,1.7,5.38,4.45,5.38,1.73,0,2.58-.8,3.45-2.5l.51.17Z"/>
    <path class="cls-1" d="m69.14,69.43c2.9,0,5.5,2.22,5.5,5.6,0,3.65-2.48,5.92-5.6,5.92s-5.64-2.48-5.64-5.67,2.16-5.86,5.74-5.86Zm-.34.63c-1.9,0-3.63,1.6-3.63,4.77s1.73,5.48,4.14,5.48c2.05,0,3.6-1.53,3.6-4.8,0-3.57-1.88-5.45-4.11-5.45Z"/>
    <path class="cls-1" d="m90.15,70.14c-1.09.12-1.44.29-1.49,1.07-.02.54-.05,1.26-.05,2.84v6.81h-.65l-7.27-8.88v4.24c0,1.53.05,2.29.08,2.78.03.87.46,1.12,1.68,1.22v.48h-4.13v-.48c1.05-.08,1.46-.34,1.53-1.17.05-.54.08-1.31.08-2.85v-4.33c0-.48-.03-.75-.34-1.12-.32-.42-.68-.53-1.51-.61v-.48h2.55l7.2,8.54v-4.16c0-1.58-.03-2.31-.08-2.82-.05-.76-.44-1-1.8-1.09v-.48h4.19v.48Z"/>
    <path class="cls-1" d="m99.32,72.25c-.29-1.12-.76-2.22-2.36-2.22-1.32,0-1.78.97-1.78,1.85,0,1.17.75,1.77,2.16,2.5,2.04,1.05,2.92,1.83,2.92,3.45,0,1.78-1.54,3.14-3.73,3.14-1.02,0-1.9-.29-2.6-.56-.14-.48-.34-1.63-.46-2.55l.53-.14c.34,1.14,1.09,2.61,2.85,2.61,1.22,0,1.97-.85,1.97-1.95,0-1.31-.7-1.83-2.19-2.65-1.78-.97-2.78-1.78-2.78-3.36s1.26-2.94,3.5-2.94c.95,0,1.88.25,2.24.32.07.61.14,1.29.27,2.39l-.53.1Z"/>
    <path class="cls-1" d="m115.31,70.14c-1.07.07-1.46.34-1.49,1.12-.02.39-.05,1.1-.05,2.67v1.83c0,1.73-.2,3.06-1.19,4.09-.8.83-1.95,1.09-3.12,1.09-.98,0-2.04-.2-2.78-.78-1.02-.78-1.51-1.95-1.51-3.94v-4.33c0-1.53-.14-1.63-1.49-1.75v-.48h4.47v.48c-1.36.08-1.49.22-1.49,1.75v4.24c0,2.48,1.17,3.84,3.21,3.84,2.41,0,3.17-1.49,3.17-4.31v-1.73c0-1.56-.05-2.21-.08-2.67-.05-.76-.44-1.05-1.7-1.12v-.48h4.07v.48Z"/>
    <path class="cls-1" d="m126.93,77.88c-.1.53-.61,2.29-.78,2.82h-7.89v-.48c1.54-.15,1.68-.24,1.68-1.68v-6.74c0-1.44-.17-1.53-1.53-1.66v-.48h4.55v.48c-1.36.14-1.54.2-1.54,1.66v6.91c0,1.04.14,1.27,1.1,1.29.02,0,1.24.02,1.34.02.87,0,1.12-.1,1.51-.53.42-.44.78-1.12,1.04-1.75l.53.14Z"/>
    <path class="cls-1" d="m137.62,72.33c-.15-.54-.36-1.1-.54-1.41-.27-.46-.44-.58-1.38-.58h-1.7v8.27c0,1.32.14,1.51,1.75,1.61v.48h-4.94v-.48c1.58-.1,1.71-.27,1.71-1.61v-8.27h-1.54c-.93,0-1.21.1-1.49.61-.2.34-.34.75-.56,1.38h-.51c.1-1.04.2-2.11.25-3.06h.39c.25.41.44.39.92.39h6.72c.48,0,.61-.07.87-.39h.41c0,.8.07,2.02.15,3l-.51.05Z"/>
    <path class="cls-1" d="m147.4,69.43c2.9,0,5.5,2.22,5.5,5.6,0,3.65-2.48,5.92-5.6,5.92s-5.64-2.48-5.64-5.67,2.16-5.86,5.74-5.86Zm-.34.63c-1.9,0-3.63,1.6-3.63,4.77s1.73,5.48,4.14,5.48c2.05,0,3.6-1.53,3.6-4.8,0-3.57-1.88-5.45-4.11-5.45Z"/>
    <path class="cls-1" d="m166.75,80.84c-.22,0-.41-.02-.63-.03-1.24-.08-1.9-.41-2.65-1.46-.63-.87-1.24-1.94-1.78-2.8-.34-.54-.56-.65-1.43-.65h-.59v2.67c0,1.44.19,1.53,1.54,1.66v.48h-4.53v-.48c1.41-.15,1.53-.22,1.53-1.66v-6.77c0-1.44-.19-1.49-1.53-1.65v-.48h4.33c1.24,0,2.07.15,2.72.58.7.44,1.15,1.21,1.15,2.24,0,1.46-.93,2.38-2.19,2.92.31.53,1.04,1.66,1.54,2.43.63.9.95,1.32,1.34,1.75.46.49.85.68,1.24.78l-.07.48Zm-6.26-5.52c.88,0,1.44-.14,1.87-.49.66-.49.93-1.17.93-2.09,0-1.82-1.21-2.48-2.51-2.48-.49,0-.78.07-.9.17-.15.12-.2.29-.2.73v4.16h.81Z"/>
    <path class="cls-1" d="m169.56,80.7v-.48c1.39-.15,1.53-.22,1.53-1.66v-6.74c0-1.46-.14-1.53-1.53-1.68v-.48h4.55v.48c-1.41.15-1.54.22-1.54,1.68v6.74c0,1.46.14,1.51,1.54,1.66v.48h-4.55Z"/>
    <path class="cls-1" d="m183.95,80.7v-.48c1.1-.14,1.24-.31,1-.95-.22-.66-.56-1.51-.92-2.58h-3.67c-.27.76-.53,1.43-.76,2.12-.37,1.1-.14,1.24,1.26,1.41v.48h-3.92v-.48c1.07-.14,1.34-.25,1.94-1.78l3.51-8.91.54-.1c1.07,2.9,2.24,6.11,3.31,9.05.54,1.48.7,1.61,1.9,1.75v.48h-4.19Zm-1.7-9.05c-.54,1.46-1.12,3-1.63,4.35h3.17l-1.54-4.35Z"/>
    <path class="cls-1" d="m205.61,78c-.1.44-.56,2.19-.73,2.7h-8.25v-.48c1.58-.12,1.7-.27,1.7-1.66v-6.71c0-1.51-.19-1.6-1.46-1.71v-.48h5.19c1.6,0,2.26-.02,2.46-.03.02.42.08,1.7.15,2.6l-.51.08c-.15-.58-.32-.93-.51-1.29-.27-.56-.66-.68-1.68-.68h-1.61c-.53,0-.56.05-.56.54v3.75h1.88c1.27,0,1.36-.25,1.56-1.41h.53v3.5h-.53c-.22-1.22-.36-1.39-1.58-1.39h-1.87v3.38c0,1.19.37,1.29,1.22,1.31h1.58c1.04,0,1.21-.15,1.58-.59.32-.36.68-1.05.92-1.56l.51.14Z"/>
    <path class="cls-1" d="m218.4,80.7v-.48c1.39-.14,1.44-.24,1.43-2.05l.02-6.93c-1.39,3.11-3.63,7.96-4.23,9.46h-.44c-.58-1.54-2.5-6.21-3.79-9.29-.29,5.94-.31,7.28-.31,7.61.02.95.44,1.09,1.6,1.21v.48h-4.02v-.48c.98-.1,1.39-.31,1.53-1.22.1-.75.12-1.36.56-7.55.07-.88-.1-1.17-1.6-1.31v-.48h2.95l3.75,8.61,4.02-8.61h2.97v.48c-1.46.17-1.65.32-1.61,1.51l.07,6.52c.07,1.82.12,1.9,1.61,2.05v.48h-4.52Z"/>
    <path class="cls-1" d="m238.24,80.7v-.48c1.1-.14,1.24-.31,1-.95-.22-.66-.56-1.51-.92-2.58h-3.67c-.27.76-.53,1.43-.76,2.12-.37,1.1-.14,1.24,1.26,1.41v.48h-3.92v-.48c1.07-.14,1.34-.25,1.94-1.78l3.51-8.91.54-.1c1.07,2.9,2.24,6.11,3.31,9.05.54,1.48.7,1.61,1.9,1.75v.48h-4.19Zm-1.7-9.05c-.54,1.46-1.12,3-1.63,4.35h3.17l-1.54-4.35Z"/>
    <path class="cls-1" d="m253.78,77.88c-.1.53-.61,2.29-.78,2.82h-7.89v-.48c1.54-.15,1.68-.24,1.68-1.68v-6.74c0-1.44-.17-1.53-1.53-1.66v-.48h4.55v.48c-1.36.14-1.54.2-1.54,1.66v6.91c0,1.04.14,1.27,1.1,1.29.02,0,1.24.02,1.34.02.87,0,1.12-.1,1.51-.53.42-.44.78-1.12,1.04-1.75l.53.14Z"/>
    <path class="cls-1" d="m257.04,80.7v-.48c1.39-.15,1.53-.22,1.53-1.66v-6.74c0-1.46-.14-1.53-1.53-1.68v-.48h4.55v.48c-1.41.15-1.54.22-1.54,1.68v6.74c0,1.46.14,1.51,1.54,1.66v.48h-4.55Z"/>
    <path class="cls-1" d="m274.78,80.7v-.48c1.39-.14,1.44-.24,1.43-2.05l.02-6.93c-1.39,3.11-3.63,7.96-4.23,9.46h-.44c-.58-1.54-2.5-6.21-3.79-9.29-.29,5.94-.31,7.28-.31,7.61.02.95.44,1.09,1.6,1.21v.48h-4.02v-.48c.98-.1,1.39-.31,1.53-1.22.1-.75.12-1.36.56-7.55.07-.88-.1-1.17-1.6-1.31v-.48h2.95l3.75,8.61,4.02-8.61h2.97v.48c-1.46.17-1.65.32-1.61,1.51l.07,6.52c.07,1.82.12,1.9,1.61,2.05v.48h-4.52Z"/>
    <path class="cls-1" d="m291.77,78c-.1.44-.56,2.19-.73,2.7h-8.25v-.48c1.58-.12,1.7-.27,1.7-1.66v-6.71c0-1.51-.19-1.6-1.46-1.71v-.48h5.19c1.6,0,2.26-.02,2.46-.03.02.42.08,1.7.15,2.6l-.51.08c-.15-.58-.32-.93-.51-1.29-.27-.56-.66-.68-1.68-.68h-1.61c-.53,0-.56.05-.56.54v3.75h1.88c1.27,0,1.36-.25,1.56-1.41h.53v3.5h-.53c-.22-1.22-.36-1.39-1.58-1.39h-1.87v3.38c0,1.19.37,1.29,1.22,1.31h1.58c1.04,0,1.21-.15,1.58-.59.32-.36.68-1.05.92-1.56l.51.14Z"/>
    <path class="cls-1" d="m306.83,70.14c-1.09.12-1.44.29-1.49,1.07-.02.54-.05,1.26-.05,2.84v6.81h-.65l-7.27-8.88v4.24c0,1.53.05,2.29.08,2.78.03.87.46,1.12,1.68,1.22v.48h-4.13v-.48c1.05-.08,1.46-.34,1.53-1.17.05-.54.08-1.31.08-2.85v-4.33c0-.48-.03-.75-.34-1.12-.32-.42-.68-.53-1.51-.61v-.48h2.55l7.2,8.54v-4.16c0-1.58-.03-2.31-.08-2.82-.05-.76-.44-1-1.8-1.09v-.48h4.19v.48Z"/>
    <path class="cls-1" d="m319.39,72.33c-.15-.54-.36-1.1-.54-1.41-.27-.46-.44-.58-1.38-.58h-1.7v8.27c0,1.32.14,1.51,1.75,1.61v.48h-4.94v-.48c1.58-.1,1.71-.27,1.71-1.61v-8.27h-1.54c-.93,0-1.21.1-1.49.61-.2.34-.34.75-.56,1.38h-.51c.1-1.04.2-2.11.25-3.06h.39c.25.41.44.39.92.39h6.72c.48,0,.61-.07.87-.39h.41c0,.8.07,2.02.15,3l-.51.05Z"/>
    <path class="cls-1" d="m329.17,69.43c2.9,0,5.5,2.22,5.5,5.6,0,3.65-2.48,5.92-5.6,5.92s-5.64-2.48-5.64-5.67,2.16-5.86,5.74-5.86Zm-.34.63c-1.9,0-3.63,1.6-3.63,4.77s1.73,5.48,4.14,5.48c2.05,0,3.6-1.53,3.6-4.8,0-3.57-1.88-5.45-4.11-5.45Z"/>
    <path class="cls-1" d="m344.37,72.25c-.29-1.12-.76-2.22-2.36-2.22-1.32,0-1.78.97-1.78,1.85,0,1.17.75,1.77,2.16,2.5,2.04,1.05,2.92,1.83,2.92,3.45,0,1.78-1.54,3.14-3.73,3.14-1.02,0-1.9-.29-2.6-.56-.14-.48-.34-1.63-.46-2.55l.53-.14c.34,1.14,1.09,2.61,2.85,2.61,1.22,0,1.97-.85,1.97-1.95,0-1.31-.7-1.83-2.19-2.65-1.78-.97-2.78-1.78-2.78-3.36s1.26-2.94,3.5-2.94c.95,0,1.88.25,2.24.32.07.61.14,1.29.27,2.39l-.53.1Z"/>
  </g>
</svg>