<svg xmlns="http://www.w3.org/2000/svg" xml:space="preserve" width="24" height="24" style="shape-rendering:geometricPrecision;text-rendering:geometricPrecision;image-rendering:optimizeQuality;fill-rule:evenodd;clip-rule:evenodd" viewBox="0 0 635 635">
  <path d="M318 57c84 0 94 1 128 2 86 4 126 45 130 130 1 34 2 44 2 129 0 84-1 94-2 128-4 85-44 126-130 130-34 1-44 2-128 2-85 0-95-1-129-2-86-4-126-45-130-130-1-34-2-44-2-129 0-84 1-94 2-128 4-85 44-126 130-130 34-1 44-2 129-2zm0-57c-87 0-98 0-131 2C71 7 7 71 2 187c-2 33-2 44-2 131 0 86 0 97 2 130 5 116 69 180 185 185 33 2 44 2 131 2 86 0 97 0 130-2 116-5 180-69 185-185 2-33 2-44 2-130 0-87 0-98-2-131C628 71 564 7 448 2c-33-2-44-2-130-2zm0 154c-91 0-164 73-164 163 0 91 73 164 164 164 90 0 163-73 163-164 0-90-73-163-163-163zm0 269c-59 0-106-47-106-106 0-58 47-105 106-105 58 0 105 47 105 105 0 59-47 106-105 106zm169-313c-21 0-38 17-38 38s17 38 38 38 38-17 38-38-17-38-38-38z" style="fill:#dfb159"/>
</svg>
