<svg xmlns="http://www.w3.org/2000/svg" xml:space="preserve" width="210" height="45" style="shape-rendering:geometricPrecision;text-rendering:geometricPrecision;image-rendering:optimizeQuality;fill-rule:evenodd;clip-rule:evenodd" viewBox="0 0 5556 1191">
  <defs>
    <style>
      .fil0{fill:#dfb159}
    </style>
  </defs>
  <g id="Layer_x0020_1">
    <g id="_2625433489280">
      <path class="fil0" d="M0 325c0 52-2 66 16 117 22 64 40 61 64 55-5-21-34-18-50-111-9-48-5-96 11-142 11-28 21-49 46-62 42 9 55 83 64 129 11 55 17 111 26 170 8 60 16 112 25 172 7 53 9 111 40 156 35-3 35-25 45-64 21-88 39-172 68-261l87-239c6-16 30-65 31-81-24 0-26 6-47 55-85 201-116 308-166 521l-8 20c-20-87-36-229-51-328-11-76-26-282-108-269-35 5-54 31-68 58-13 26-25 67-25 104zM2236 511c0 108 27 238 131 286 152 72 285-82 337-207 5-13 9-19 14-32 8-19 1-27-13-13s-107 250-238 250c-44 0-62-2-102-27-65-40-101-144-101-225v-60c0-80 42-210 73-260 11-18 18-32 31-50 27-40 90-111 141-111 45 0 62 0 96 38 7 9 9 14 15 23 25 34 44-14-16-57-76-55-145-7-201 37-18 13-54 59-66 78-58 92-101 209-101 330zM1230 578c0-68 37-141 102-141 48 0 91 26 91 46v172c0 18-47 56-81 56-40 0-62-7-88-42-14-20-24-56-24-91zm175-298c23 20 18 45 18 80v102c-12-3-74-58-159-15-21 11-41 30-52 50-83 161 87 284 189 195 10-8 9-13 22-16v45l46-13c16-5 4 5 13-8-18 0-28-10-28-28V273c-15 0-34 5-49 7zM3154 469v-32c-11 0-28 2-39 4-26 6 4 3 4 21v221c0 13-6 20-15 26-17 11 14-8-5 3l80 2c-1 0-2-2-2-1l-7-4c-8-7-16-15-16-30V490c0-58 161-82 161 7v186c0 17-9 21-16 26s-1 0-8 5h84c-1 0-2-2-2-1 0 0-17-8-21-25-12-44 17-185-20-225-31-34-103-36-143-19-20 10-20 15-35 25zM936 465v-28c-8 0-36 3-42 5-19 6 7 1 7 27v210c0 18-10 25-19 31l78 4c-1 0-2-2-2-1s-2-1-2-1c-12-7-20-13-20-29V483c0-41 161-82 161 18 0 32 7 180-7 199l-18 14h84s-1-2-2-1c0 0-16-6-21-21-17-58 14-187-19-227-24-30-60-31-98-31-36 0-59 17-80 31zM3690 444c21 18 14 38 14 81 0 122-20 196 113 196 46 0 71-28 84-31 6 27 23 34 50 25 8-3 8-3 13-8h-25c-8-35-3-219-3-270-16 1-34 6-49 7 7 7 14 10 14 25v203c0 40-161 84-161-17V437c-16 1-35 6-50 7zM1700 679c-9 3-99 72-139 9-24-38-14-101 53-123 21-7 56-15 74-27 8-6 10-11 19-16 0 30 5 132-4 150l2 5c0 1 1 2 1 3 2 8 2 55 53 34 7-3 6-3 11-7h-25c-14-59 6-178-8-216-7-19-18-33-35-42-90-48-174 15-176 52 0 11 7 16 12 24h21c8-11 11-12 11-31-15-10-4-11-28-11 10-37 118-71 154-17 47 71-59 85-108 98-90 25-86 102-54 134 42 41 139 21 166-19zM767 679c-13 4-55 42-96 34-72-13-76-120 10-148 19-6 33-9 51-16 31-12 28-18 42-27 0 30 6 132-3 150l5 23c2 11 5 16 12 20 6 3 17 4 28 2l21-10h-24c-23-99 31-218-43-258-53-28-129-22-164 27-21 30-10 34 0 49h21c8-11 11-12 11-31-15-10-4-11-28-11 10-37 117-71 153-17 48 71-59 85-107 98-29 8-53 21-66 46-16 31-8 68 12 88 41 41 139 21 165-19zM5240 676c-15 10-23 17-41 26-12 5-36 13-54 12-68-5-90-116 11-150 44-15 62-13 91-46 0 48 6 113-4 154 1 1 1 1 1 3 0 1 1 2 1 2 0 1 1 2 1 3v3c6 43 9 40 60 28l-5-2c-19-5-23 4-23-47 0-35 7-160-8-185-26-40-92-56-144-37-18 6-35 17-46 31-18 23-21 30-5 54h21c6-9 8-10 14-21-9-17-5-21-32-21 17-25 38-36 72-44 36-7 72 7 85 28 7 11 12 31 9 41-16 59-149 33-186 106-35 72 51 140 150 90 13-6 28-14 32-28zM2912 714c-37 0-62-12-81-41-58-88-22-239 78-239 144 0 144 280 3 280zm-143-150v17c0 136 166 179 243 99 52-54 55-154 3-205-34-33-58-45-110-45-75 0-136 62-136 134zM4377 585c0-54 13-113 60-137 88-46 154 34 154 116 0 47-2 67-26 107-33 55-116 62-160 2-14-19-28-57-28-88zm-35-11c0 148 165 181 240 110 81-78 55-254-103-254-79 0-137 65-137 144zM3424 504c0 98 186 56 186 154 0 49-77 70-143 45-35-14-35-23-50-27 3 9 7 11 22 20 9 6 21 11 31 14 141 51 255-98 82-155-23-7-41-13-62-22-80-33-26-96 22-96 28 0 76 1 91 21-29 7-27 43 7 43 10 0 17-13 17-22 0-53-203-84-203 25zM5530 651c0 19-13 39-26 47-57 36-121 8-166-22 8 29 88 46 120 43 124-12 112-110 65-141-56-36-154-34-154-92 0-52 80-55 122-44 15 4 19 10 32 13l-13 8c-32 29 35 60 35 16 0-47-156-77-192-9-18 32-10 66 18 85 41 27 159 38 159 96zM4020 280c5 7 17 8 17 45 0 51 6 343-5 369-7 15-15 15-23 20l79-4-2-2c-25-21-17-40-17-85V273c-12 3-35 7-49 7zM2919 981v133c-15 0-16-1-17 14h52c-1-15-2-14-17-14V998l37 75c5 10 7 18 12 27 13-10 29-55 40-76 2-5 4-8 5-12 1-1 3-6 4-7l4 109h-14v14h59v-14h-14V981h14v-14h-49c-7 31-32 60-39 87-9-7-39-78-42-87h-52c1 15 2 13 17 14zM3754 981h17v133h-17v14h49v-14h-18V995c4 4 4 4 7 10 3 5 3 9 6 15 10 24 30 55 36 80l55-103c0-1 1-2 1-2v119h-17v14h63v-14h-18V981h18v-14c-67 0-44-7-69 43-7 14-14 36-26 44-6-26-20-44-30-68-9-24 0-19-57-19v14zM4728 497v-60c-14 0-37 5-49 7 14 13 17 16 17 42v176c0 30-8 38-24 52h80c-7-6-9-4-17-14-13-20-7-143-7-182 0-32 55-77 102-77l35 3c-1 1-2 1-2 2-1 1-15 8-15 23 1 27 45 27 45 0 0-45-107-57-161 22-4 6 0 1-4 6zM4192 981h14v133h-14v14h49v-14h-18V995c10 7 15 19 22 31 11 17 59 87 62 102h28V981c16-1 17 1 18-14h-53c2 15 2 13 18 14v105c-7-5-15-20-21-29-66-103-40-90-105-90v14zM2162 1040h-31v-59h35c12 0 21 17 21 28 0 17-6 31-25 31zm-77-59h18v133h-18v14h63c-1-15-2-14-17-14v-60c26 0 20-1 29 16 33 63 25 58 72 58v-14c-25-1-35-30-52-63 14-7 35-13 35-46 0-51-73-38-130-38v14zM873 981h17v133h-17v14h49v-14h-18V995c11 4 18 22 25 31l43 69c22 33 11 33 44 33V981h18v-14h-49v14h17v105c-9-6-33-45-40-58l-37-61h-52v14zM2713 981h14v133h-14v14h126c0-42 4-46-14-46-14 0-11 9-11 32h-56v-63h35c1 17 0 17 18 17v-49c-18 1-17 0-18 18h-35v-56h56v28h21v-42h-122v14zM4286 707c-20 1-24 8-45 0-42-16-32-71-32-129 0-37 1-73 0-109-1-39-11-32 77-32l-77-3-3-91c0 55-12 91-67 91l39 3v200c-1 64 37 90 89 79 13-3 12-2 19-9zM473 443c-3 9-4-3 1 5 0 0 3 3 4 5 5 7 6 6 6 16v214c0 17-10 22-22 31l77-2s-20-9-20-33V437l-46 6zM1903 1047c0-37 6-66 43-68 63-3 54 135 13 135-19 0-28 3-41-8-4-4-7-9-9-15-3-10-6-32-6-44zm42 84c104 0 99-168 4-168-50 0-74 33-76 82-1 45 25 86 72 86zM694 1072v-49c0-60 84-60 84 3v42c0 64-84 62-84 4zm-32-32c0 129 147 114 147 7 0-115-147-107-147-7zM4644 1068c0-26-8-91 42-91 18 0 42 19 42 42 0 35 10 101-45 97-25-2-39-21-39-48zm-32-24c0 117 147 118 147 0 0-109-147-107-147 0zM3999 981h17v133h-17v14h126v-46h-21v32h-60v-63h39v17h14v-49h-14v18h-39v-56h57v28h21v-42h-123zM4938 444c10 9 18 13 18 28 0 39 5 206-6 226-6 11-11 9-19 16h81c-13-11-25-20-25-45V437c-14 0-37 5-49 7zM4914 1082v14c0 18-67 43-67-17h-21v49h21v-11c77 52 125-50 64-78-15-7-35-7-48-15s-32-58 47-40l4 28h24v-45l-22 2c-20 5-4-6-37-6-39 0-65 36-46 70 18 32 81 22 81 49zM1100 1005c0 72 88 41 88 81 0 23-19 32-40 30-47-5-9-37-41-37-15 0-10 15-10 49h24v-11c13 9 14 14 35 14 57 0 83-69 22-94-34-14-53-4-53-39 0-15 22-22 37-20 21 3 26 12 26 34h21v-45h-21v10c-10-6-15-14-32-14-29 0-56 14-56 42zM1293 981c0 92-16 150 67 150 69 0 56-80 56-150h14v-14h-49c1 15 2 13 17 14 0 98 13 133-45 133-43 0-32-80-32-133h18v-14h-63c1 15 2 13 17 14zM2474 991h7c2 20 17 54 21 74h-49c2-19 16-52 21-74zm-66 123v14h49c-2-18-4-14-21-14 4-8 9-24 10-35h60c4 8 9 24 10 35h-17v14h63c-2-27-10 3-22-35l-41-126h-32l-44 135c-4 11-2 11-15 12zM3308 988l25 77h-49l24-77zm-73 140h49v-14h-18l11-35h59c4 14 10 21 11 35h-18v14h60v-14c-16-2-8 4-22-31-14-34-26-86-41-116h-28c-1 15-9 29-14 42-5 15-9 29-14 42-5 15-9 29-14 42-15 38-19 8-21 35zM4409 998c0 15 24 15 24 0v-17h36v133c-25 0-24-2-25 14h74v-14h-21V981h35v28h21v-42h-144v31zM1672 1009h21v-28h35v133h-21v14h70v-14h-21V981h35v28h21v-42h-140zM469 1033c0 47 10 98 71 98 22 0 43-14 51-29 11-19-2-20-8-12-42 50-82 9-82-15 0-46-10-93 36-96 25-2 38 9 38 37h21v-49h-21v10c-62-41-106 17-106 56zM1493 981h17v133h-17v14h119v-46h-21v32h-53V981h18v-14h-63zM3445 981h18v133h-18v14h119v-46h-21v32h-52V981h17v-14h-63zM3627 981h18v133h-18v14h63v-14h-17V981h17v-14h-63zM2289 981h17v133h-17v14h63c-2-15-2-14-18-14V981c16-1 16 1 18-14h-63v14zM481 375l-1 20c14 13 9 11 32 11 12-14 10-9 10-32-14-12-9-10-31-10l-10 11zM4956 367c-8 16-8 20 0 35l28 4c14-22 14-21 0-42l-28 3zM4286 707c14-1 15-2 21-10l-21 10zM5243 672l-3 4zM767 679l4-7zM1700 679l3-7z"/>
    </g>
  </g>
</svg>
