<svg xmlns="http://www.w3.org/2000/svg" xml:space="preserve" width="15.999" height="15.999" style="shape-rendering:geometricPrecision;text-rendering:geometricPrecision;image-rendering:optimizeQuality;fill-rule:evenodd;clip-rule:evenodd" viewBox="0 0 423 423">
  <path d="m0 423 30-109C12 283 2 246 2 209 2 94 96 0 212 0c56 0 109 22 148 61 40 40 61 93 61 149 0 115-94 210-209 210-35 0-70-9-101-26L0 423zm117-67c29 18 58 28 95 28 96 0 174-78 174-174 0-97-78-175-174-175S38 113 37 209c0 40 12 69 31 100l-17 64 66-17zm201-97c-2-1-6-3-11-6-5-2-31-15-35-17-5-1-9-2-12 3-4 5-14 17-17 20-3 4-6 5-11 2s-22-8-43-26c-15-14-26-31-28-36-4-5-1-9 2-11 2-2 5-6 8-9 2-4 3-5 5-9 2-3 1-7-1-9-1-3-11-29-16-39-4-10-8-9-11-9h-11c-3 0-9 1-14 6-4 5-18 18-18 44s19 51 22 54c2 3 36 57 89 79 12 6 22 9 30 11 13 4 24 4 33 3 10-2 31-13 35-25 5-13 5-23 4-26z" style="fill:#dfb159"/>
</svg>
